<svg width="128" height="128" viewBox="0 0 128 128" fill="none" xmlns="http://www.w3.org/2000/svg">
<g id="Docs">
<path id="Page" d="M29.3333 5.33334C24.9151 5.33334 21.3333 8.91506 21.3333 13.3333V114.667C21.3333 119.085 24.9151 122.667 29.3333 122.667H98.6667C103.085 122.667 106.667 119.085 106.667 114.667V37.3333L74.6667 5.33334H29.3333Z" fill="#4E8DF5"/>
<path id="Shadow" d="M29.3333 122.667C24.9151 122.667 21.3333 119.085 21.3333 114.667V113.333C21.3333 117.752 24.9151 121.333 29.3333 121.333H98.6667C103.085 121.333 106.667 117.752 106.667 113.333V114.667C106.667 119.085 103.085 122.667 98.6667 122.667H29.3333Z" fill="#417EE9"/>
<path id="Highlight" d="M29.3333 5.33334C24.9151 5.33334 21.3333 8.91506 21.3333 13.3333V14.6667C21.3333 10.2484 24.9151 6.66667 29.3333 6.66667H76L74.6667 5.33334H29.3333Z" fill="#639AF6"/>
<path id="Fold Shadow" d="M106.667 64.6667V37.3333L102 32.6667H79.4951C77.7133 32.6667 76.821 34.821 78.0809 36.0809L106.667 64.6667Z" fill="url(#paint0_linear_3_200)"/>
<path id="Fold" d="M74.6667 5.33334L106.667 37.3333H82.6667C78.2484 37.3333 74.6667 33.7516 74.6667 29.3333V5.33334Z" fill="#A6C5FA"/>
<g id="Icon">
<path d="M85.3333 64H42.6667V69.3333H85.3333V64Z" fill="white"/>
<path d="M85.3333 74.6667H42.6667V80H85.3333V74.6667Z" fill="white"/>
<path d="M42.6667 85.3333H85.3333V90.6667H42.6667V85.3333Z" fill="white"/>
<path d="M74.6667 96H42.6667V101.333H74.6667V96Z" fill="white"/>
</g>
</g>
<defs>
<linearGradient id="paint0_linear_3_200" x1="90.6667" y1="64.6667" x2="90.6667" y2="32" gradientUnits="userSpaceOnUse">
<stop stop-color="#4E8DF5"/>
<stop offset="1" stop-color="#3D6ACD"/>
</linearGradient>
</defs>
</svg>
