<svg xmlns="http://www.w3.org/2000/svg" width="128" height="128" viewBox="0 0 128 128" fill="none">
  <path d="M29.3333 5.33334C24.915 5.33334 21.3333 8.91506 21.3333 13.3333V114.667C21.3333 119.085 24.915 122.667 29.3333 122.667H98.6666C103.085 122.667 106.667 119.085 106.667 114.667V37.3333L74.6666 5.33334H29.3333Z" fill="#6B3FB9"/>
  <path d="M29.3333 122.667C24.915 122.667 21.3333 119.085 21.3333 114.667V113.333C21.3333 117.752 24.915 121.333 29.3333 121.333H98.6666C103.085 121.333 106.667 117.752 106.667 113.333V114.667C106.667 119.085 103.085 122.667 98.6666 122.667H29.3333Z" fill="#6439B5"/>
  <path d="M29.3333 5.33334C24.915 5.33334 21.3333 8.91506 21.3333 13.3333V14.6667C21.3333 10.2484 24.915 6.66667 29.3333 6.66667H76L74.6666 5.33334H29.3333Z" fill="#815BC3"/>
  <path d="M106.667 64.6667V37.3333L102 32.6667H79.4951C77.7133 32.6667 76.821 34.821 78.0809 36.0809L106.667 64.6667Z" fill="url(#paint0_linear_3_197)"/>
  <path d="M74.6667 5.33334L106.667 37.3333H82.6667C78.2484 37.3333 74.6667 33.7516 74.6667 29.3333V5.33334Z" fill="#B7A2DD"/>
  <path d="M46.6667 70.6667C48.8758 70.6667 50.6667 68.8758 50.6667 66.6667C50.6667 64.4575 48.8758 62.6667 46.6667 62.6667C44.4575 62.6667 42.6667 64.4575 42.6667 66.6667C42.6667 68.8758 44.4575 70.6667 46.6667 70.6667Z" fill="white"/>
  <path d="M86.6667 64H57.3334V69.3333H86.6667V64Z" fill="white"/>
  <path d="M86.6667 77.3333H57.3334V82.6667H86.6667V77.3333Z" fill="white"/>
  <path d="M57.3334 90.6667H86.6667V96H57.3334V90.6667Z" fill="white"/>
  <path d="M50.6667 80C50.6667 82.2091 48.8758 84 46.6667 84C44.4575 84 42.6667 82.2091 42.6667 80C42.6667 77.7909 44.4575 76 46.6667 76C48.8758 76 50.6667 77.7909 50.6667 80Z" fill="white"/>
  <path d="M46.6667 97.3333C48.8758 97.3333 50.6667 95.5425 50.6667 93.3333C50.6667 91.1242 48.8758 89.3333 46.6667 89.3333C44.4575 89.3333 42.6667 91.1242 42.6667 93.3333C42.6667 95.5425 44.4575 97.3333 46.6667 97.3333Z" fill="white"/>
  <defs>
    <linearGradient id="paint0_linear_3_197" x1="92.0789" y1="64.6667" x2="92.0789" y2="32" gradientUnits="userSpaceOnUse">
      <stop stop-color="#6B3FB9"/>
      <stop offset="1" stop-color="#5B3DA3"/>
    </linearGradient>
  </defs>
</svg>