<svg xmlns="http://www.w3.org/2000/svg" width="16" height="17" viewBox="0 0 16 17" fill="none">
    <path fill-rule="evenodd" clip-rule="evenodd" d="M3.02344 3.47819C3.02344 0.84381 6.40468 -0.71869 8.3953 1.73131C6.84218 2.34381 5.46718 4.28131 6.05468 6.44694C6.0453 6.44694 6.03593 6.4485 6.02655 6.45006C6.01718 6.45162 6.0078 6.45319 5.99843 6.45319C4.35468 6.45319 3.02344 5.12194 3.02344 3.47819ZM12.9734 5.47817C12.9734 7.12122 11.6415 8.45317 9.99843 8.45317C8.35539 8.45317 7.02344 7.12122 7.02344 5.47817C7.02344 3.83513 8.35539 2.50317 9.99843 2.50317C11.6415 2.50317 12.9734 3.83513 12.9734 5.47817ZM15.9484 13.9C15.9484 17.3687 4.05469 17.3687 4.05469 13.9C4.05469 7.76873 15.9484 7.83123 15.9484 13.9ZM6.39923 7.34693C0.905481 6.5938 -2.62577 12.9688 2.53048 14.0563C2.58048 11.1282 4.80548 9.34693 7.52736 8.69068C7.05861 8.3313 6.67423 7.87505 6.39923 7.34693Z" fill="#000"/>
</svg>