<svg xmlns="http://www.w3.org/2000/svg" width="128" height="128" viewBox="0 0 128 128" fill="none">
  <path d="M29.3333 5.33334C24.9151 5.33334 21.3333 8.91506 21.3333 13.3333V114.667C21.3333 119.085 24.915 122.667 29.3333 122.667H98.6667C103.085 122.667 106.667 119.085 106.667 114.667V37.3333L74.6667 5.33334H29.3333Z" fill="#F4B70A"/>
  <path d="M29.3333 122.667C24.9151 122.667 21.3333 119.085 21.3333 114.667V113.333C21.3333 117.752 24.9151 121.333 29.3333 121.333H98.6667C103.085 121.333 106.667 117.752 106.667 113.333V114.667C106.667 119.085 103.085 122.667 98.6667 122.667H29.3333Z" fill="#EFA904"/>
  <path d="M29.3333 5.33334C24.9151 5.33334 21.3333 8.91506 21.3333 13.3333V14.6667C21.3333 10.2484 24.915 6.66667 29.3333 6.66667H76L74.6667 5.33334H29.3333Z" fill="#F6C028"/>
  <path d="M106.667 64.6667V37.3333L102 32.6667H79.4951C77.7133 32.6667 76.821 34.821 78.0809 36.0809L106.667 64.6667Z" fill="url(#paint0_linear_3_199)"/>
  <path d="M74.6667 5.33334L106.667 37.3333H82.6667C78.2484 37.3333 74.6667 33.7516 74.6667 29.3333V5.33334Z" fill="#FADC87"/>
  <path fill-rule="evenodd" clip-rule="evenodd" d="M45.3333 58.6667C43.8606 58.6667 42.6667 59.8606 42.6667 61.3333V98.6667C42.6667 100.139 43.8606 101.333 45.3333 101.333H82.6667C84.1394 101.333 85.3333 100.139 85.3333 98.6667V61.3333C85.3333 59.8606 84.1394 58.6667 82.6667 58.6667H45.3333ZM80 70.6667H48V89.3333H80V70.6667Z" fill="white"/>
  <defs>
    <linearGradient id="paint0_linear_3_199" x1="92.0789" y1="64.6667" x2="92.0789" y2="32" gradientUnits="userSpaceOnUse">
      <stop stop-color="#F4B70A"/>
      <stop offset="1" stop-color="#E2930A"/>
    </linearGradient>
  </defs>
</svg>