<svg xmlns="http://www.w3.org/2000/svg" width="128" height="128" viewBox="0 0 128 128" fill="none">
  <path d="M29.3333 5.33334C24.9151 5.33334 21.3333 8.91506 21.3333 13.3333V114.667C21.3333 119.085 24.9151 122.667 29.3333 122.667H98.6667C103.085 122.667 106.667 119.085 106.667 114.667V37.3333L74.6667 5.33334H29.3333Z" fill="#20A464"/>
  <path d="M29.3333 122.667C24.9151 122.667 21.3333 119.085 21.3333 114.667V113.333C21.3333 117.752 24.9151 121.333 29.3333 121.333H98.6667C103.085 121.333 106.667 117.752 106.667 113.333V114.667C106.667 119.085 103.085 122.667 98.6667 122.667H29.3333Z" fill="#149456"/>
  <path d="M29.3333 5.33334C24.9151 5.33334 21.3333 8.91506 21.3333 13.3333V14.6667C21.3333 10.2484 24.9151 6.66667 29.3333 6.66667H76L74.6667 5.33334H29.3333Z" fill="#38AE74"/>
  <path d="M106.667 64.6667V37.3333L102 32.6667H79.4951C77.7133 32.6667 76.821 34.821 78.0809 36.0809L106.667 64.6667Z" fill="url(#paint0_linear_3_198)"/>
  <path d="M74.6667 5.33334L106.667 37.3333H82.6667C78.2484 37.3333 74.6667 33.7516 74.6667 29.3333V5.33334Z" fill="#8ED1B1"/>
  <path fill-rule="evenodd" clip-rule="evenodd" d="M85.3334 62.6667V101.333H42.6667V62.6667H85.3334ZM61.3334 68H48V74.6667H61.3334V68ZM66.6667 74.6667V68H80V74.6667H66.6667ZM61.3334 78.6667H48V85.3333H61.3334V78.6667ZM66.6667 85.3333V78.6667H80V85.3333H66.6667ZM61.3334 89.3333H48V96H61.3334V89.3333ZM66.6667 96V89.3333H80V96H66.6667Z" fill="white"/>
  <defs>
    <linearGradient id="paint0_linear_3_198" x1="92.0789" y1="64.6667" x2="92.0789" y2="32" gradientUnits="userSpaceOnUse">
      <stop stop-color="#20A464"/>
      <stop offset="1" stop-color="#207E55"/>
    </linearGradient>
  </defs>
</svg>